<svg width="38" height="38" viewBox="0 0 38 38" fill="none" xmlns="http://www.w3.org/2000/svg">
<rect width="38" height="38" fill="white"/>
<path d="M21.4922 16.2578C21.0195 15.7852 20.5039 15.4414 19.9453 15.1406C19.7305 15.0547 19.5156 15.0977 19.3438 15.2695L19.1719 15.4414C18.7852 15.7852 18.5703 16.2578 18.5273 16.7305C18.4844 16.9453 18.6133 17.1602 18.7852 17.2891C19.0859 17.418 19.5586 17.7188 19.7734 17.9766C21.1914 19.3945 21.1914 21.6719 19.7734 23.0898L16.5508 26.3125C15.1328 27.7305 12.8555 27.7305 11.4375 26.3125C10.0195 24.8945 10.0195 22.6172 11.4375 21.1992L13.4141 19.2227C13.543 19.0938 13.5859 18.9219 13.543 18.75C13.457 18.3203 13.3711 17.5898 13.3281 17.1172C13.3281 16.6875 12.7695 16.4727 12.4688 16.7734C11.9531 17.2891 11.1367 18.1055 9.76172 19.4805C7.39844 21.8438 7.39844 25.668 9.76172 27.9883C12.082 30.3516 15.9062 30.3516 18.2695 27.9883C21.793 24.4648 21.6211 24.6367 21.8789 24.293C23.8125 21.9727 23.6836 18.4492 21.4922 16.2578ZM28.1953 9.55469C25.875 7.19141 22.0508 7.19141 19.6875 9.55469C16.1641 13.0781 16.3359 12.9062 16.0781 13.25C14.1445 15.5703 14.2734 19.0938 16.4648 21.2852C16.9375 21.7578 17.4531 22.1016 18.0117 22.4023C18.2266 22.4883 18.4414 22.4453 18.6133 22.2734L18.7852 22.1016C19.1719 21.7578 19.3867 21.2852 19.4297 20.8125C19.4727 20.5977 19.3438 20.3828 19.1719 20.2539C18.8711 20.125 18.3984 19.8242 18.1836 19.5664C16.7656 18.1484 16.7656 15.8711 18.1836 14.4531L21.4062 11.2305C22.8242 9.8125 25.1016 9.8125 26.5195 11.2305C27.9375 12.6484 27.9375 14.9258 26.5195 16.3438L24.543 18.3203C24.4141 18.4492 24.3711 18.6211 24.4141 18.793C24.5 19.2227 24.5859 19.9531 24.6289 20.4258C24.6289 20.8555 25.1875 21.0703 25.4883 20.7695C26.0039 20.2539 26.8203 19.4375 28.1953 18.0625C30.5586 15.6992 30.5586 11.875 28.1953 9.55469Z" fill="#9A9A9A"/>
</svg>
