<svg width="38" height="38" viewBox="0 0 38 38" fill="none" xmlns="http://www.w3.org/2000/svg">
<rect width="38" height="38" fill="#E97239"/>
<path d="M24.385 22.6587C23.3537 23.3149 21.9475 23.7368 20.1662 23.9243L24.7131 28.4712C25.1193 28.8774 25.2287 29.3462 25.0412 29.8774C24.8537 30.4399 24.51 30.7837 24.01 30.9087C23.5412 31.0649 23.0725 30.9712 22.6037 30.6274C21.9787 30.0024 20.7756 28.7993 18.9943 27.0181L15.4318 30.5806C15.0256 30.9868 14.5412 31.0962 13.9787 30.9087C13.4475 30.7212 13.1037 30.3774 12.9475 29.8774C12.8225 29.4087 12.9475 28.9399 13.3225 28.4712C15.6975 26.0649 16.885 24.8618 16.885 24.8618L17.8693 23.9243C16.0256 23.7368 14.6037 23.3149 13.6037 22.6587C12.76 22.0962 12.2131 21.6431 11.9631 21.2993C11.7131 20.9243 11.7287 20.4556 12.01 19.8931C12.1975 19.4868 12.4943 19.2368 12.9006 19.1431C13.3381 19.0181 13.885 19.1743 14.5412 19.6118C14.6662 19.7056 14.8537 19.8306 15.1037 19.9868C15.3537 20.1431 15.8537 20.3462 16.6037 20.5962C17.385 20.8462 18.1818 20.9712 18.9943 20.9712C19.8068 20.9712 20.5881 20.8618 21.3381 20.6431C22.0881 20.4243 22.6193 20.1899 22.9318 19.9399L23.4475 19.6118C24.1037 19.1743 24.635 19.0181 25.0412 19.1431C25.4787 19.2368 25.8068 19.4868 26.0256 19.8931C26.2756 20.4556 26.2756 20.9243 26.0256 21.2993C25.7756 21.6431 25.2287 22.0962 24.385 22.6587ZM12.9006 13.0962C12.9006 11.4087 13.4943 9.97119 14.6818 8.78369C15.8693 7.59619 17.3068 7.00244 18.9943 7.00244C20.6818 7.00244 22.1193 7.59619 23.3068 8.78369C24.4943 9.97119 25.0881 11.4087 25.0881 13.0962C25.0881 14.7524 24.4943 16.1743 23.3068 17.3618C22.1193 18.5493 20.6818 19.1431 18.9943 19.1431C17.3068 19.1431 15.8693 18.5493 14.6818 17.3618C13.4943 16.1743 12.9006 14.7524 12.9006 13.0962ZM15.9943 13.0962C15.9943 13.9087 16.2912 14.6118 16.885 15.2056C17.4787 15.7681 18.1818 16.0493 18.9943 16.0493C19.8068 16.0493 20.51 15.7681 21.1037 15.2056C21.6975 14.6118 21.9943 13.9087 21.9943 13.0962C21.9943 12.2524 21.6975 11.5493 21.1037 10.9868C20.51 10.3931 19.8068 10.0962 18.9943 10.0962C18.1818 10.0962 17.4787 10.3931 16.885 10.9868C16.2912 11.5493 15.9943 12.2524 15.9943 13.0962Z" fill="#F9F9F9"/>
</svg>
