<svg width="38" height="38" viewBox="0 0 38 38" fill="none" xmlns="http://www.w3.org/2000/svg">
<rect width="38" height="38" fill="#67AADA"/>
<path d="M30.3197 11.222L26.8666 27.3705C26.5958 28.5215 25.9695 28.8262 24.9877 28.2845L19.7572 24.4252L17.2182 26.8627C16.8796 27.2012 16.5241 27.3705 16.1517 27.3705L16.558 22.0384L26.2572 13.3041C26.4942 13.0671 26.4942 12.9317 26.2572 12.8978C26.0541 12.8301 25.834 12.8809 25.5971 13.0502L13.6127 20.6166L8.433 18.9916C7.85748 18.8223 7.58664 18.5684 7.6205 18.2298C7.65435 17.8913 8.00982 17.6035 8.6869 17.3666L28.8471 9.54625C29.3549 9.37698 29.7611 9.44468 30.0658 9.74937C30.3705 10.0202 30.4551 10.5111 30.3197 11.222Z" fill="white"/>
</svg>
