<svg width="38" height="38" viewBox="0 0 38 38" fill="none" xmlns="http://www.w3.org/2000/svg">
<rect width="38" height="38" fill="#4982C0"/>
<path d="M32.0396 11.9922C31.938 12.5 31.5317 13.3294 30.8208 14.4805C30.1437 15.6315 29.5174 16.6471 28.9419 17.5273C28.3664 18.3737 28.0617 18.8138 28.0278 18.8477C27.8247 19.1523 27.7231 19.3724 27.7231 19.5078C27.7231 19.6432 27.8247 19.8802 28.0278 20.2188C28.0278 20.2188 28.2479 20.4557 28.688 20.9297C29.1619 21.4036 29.6528 21.9115 30.1606 22.4531C30.6685 22.9948 31.1593 23.6042 31.6333 24.2812C32.1411 24.9245 32.4627 25.4492 32.5981 25.8555C32.8351 26.7018 32.4966 27.125 31.5825 27.125H28.5864C28.3156 27.125 28.0448 27.0573 27.7739 26.9219C27.5369 26.7865 27.3338 26.6341 27.1646 26.4648C26.9953 26.2617 26.6906 25.9232 26.2505 25.4492C25.8442 24.9753 25.4549 24.5521 25.0825 24.1797C23.7284 22.8932 22.7297 22.25 22.0864 22.25C21.6802 22.25 21.4432 22.3685 21.3755 22.6055C21.3078 22.8424 21.2739 23.5195 21.2739 24.6367C21.3078 25.1784 21.3247 25.6185 21.3247 25.957C21.3247 26.3633 21.1893 26.668 20.9185 26.8711C20.6476 27.0404 20.0552 27.125 19.1411 27.125C17.55 27.125 15.9419 26.651 14.3169 25.7031C12.6919 24.7552 11.27 23.401 10.0513 21.6406C8.90023 20.0833 7.93538 18.543 7.15674 17.0195C6.41195 15.4622 5.92106 14.2773 5.68408 13.4648C5.4471 12.6523 5.32861 12.0768 5.32861 11.7383C5.32861 11.1628 5.66715 10.875 6.34424 10.875H9.34033C9.71273 10.875 9.98356 10.9596 10.1528 11.1289C10.356 11.2982 10.5252 11.6029 10.6606 12.043C11.3716 14.1081 12.2349 15.9531 13.2505 17.5781C14.3 19.2031 15.0955 20.0156 15.6372 20.0156C15.8403 20.0156 15.9757 19.9479 16.0435 19.8125C16.145 19.6432 16.1958 19.3385 16.1958 18.8984V14.4805C16.1281 13.7018 15.908 13.0586 15.5356 12.5508C15.1632 12.043 14.9771 11.7214 14.9771 11.5859C14.9771 11.3828 15.0448 11.2135 15.1802 11.0781C15.3494 10.9427 15.5356 10.875 15.7388 10.875H20.4614C21.0031 10.875 21.2739 11.2474 21.2739 11.9922V17.8828C21.2739 18.4583 21.4263 18.7461 21.731 18.7461C22.0695 18.7461 22.5435 18.4414 23.1528 17.832C23.7961 17.1211 24.4224 16.2578 25.0317 15.2422C25.6411 14.2266 26.0981 13.3802 26.4028 12.7031L26.8599 11.7383C27.0968 11.1628 27.52 10.875 28.1294 10.875H31.1255C31.938 10.875 32.2427 11.2474 32.0396 11.9922Z" fill="white"/>
</svg>
