<svg width="38" height="38" viewBox="0 0 38 38" fill="none" xmlns="http://www.w3.org/2000/svg">
<rect width="38" height="38" fill="#68BB5A"/>
<path d="M26.9727 10.9258C29.2409 13.194 30.375 15.8516 30.375 18.8984C30.375 22.013 29.2578 24.6706 27.0234 26.8711C24.7891 29.0716 22.1146 30.1719 19 30.1719C17.0703 30.1719 15.276 29.7148 13.6172 28.8008L7.625 30.375L9.25 24.5352C8.23438 22.8086 7.72656 20.9297 7.72656 18.8984C7.72656 15.7839 8.82682 13.1263 11.0273 10.9258C13.2279 8.72526 15.8854 7.625 19 7.625C22.1146 7.625 24.7721 8.72526 26.9727 10.9258ZM19 28.293C21.5729 28.293 23.7904 27.3789 25.6523 25.5508C27.5143 23.6888 28.4453 21.4714 28.4453 18.8984C28.4792 16.3932 27.5312 14.1927 25.6016 12.2969C23.7734 10.4688 21.5729 9.55469 19 9.55469C16.4271 9.55469 14.2096 10.4688 12.3477 12.2969C10.5195 14.125 9.60547 16.3255 9.60547 18.8984C9.60547 20.6927 10.0964 22.3516 11.0781 23.875L11.2812 24.2305L10.3164 27.6836L13.8711 26.7695L14.2266 26.9727C15.6823 27.8529 17.2734 28.293 19 28.293ZM24.1289 21.2344C24.4674 21.4036 24.6536 21.5221 24.6875 21.5898C24.7891 21.793 24.7214 22.25 24.4844 22.9609C24.3828 23.2318 24.112 23.5195 23.6719 23.8242C23.2656 24.0951 22.9102 24.2474 22.6055 24.2812C21.7253 24.4167 20.5911 24.1797 19.2031 23.5703C18.8984 23.4349 18.5938 23.2826 18.2891 23.1133C18.0182 22.944 17.7474 22.7578 17.4766 22.5547C17.2396 22.3516 17.0026 22.1484 16.7656 21.9453C16.5286 21.7422 16.3086 21.5391 16.1055 21.3359C15.9023 21.1328 15.7161 20.9466 15.5469 20.7773C15.3776 20.5742 15.2253 20.388 15.0898 20.2188C14.9544 20.0495 14.8359 19.9141 14.7344 19.8125C14.6667 19.6771 14.599 19.5586 14.5312 19.457C14.4635 19.3555 14.4297 19.3047 14.4297 19.3047C13.651 18.2552 13.2617 17.2904 13.2617 16.4102C13.2617 15.5638 13.5833 14.7682 14.2266 14.0234C14.4635 13.8203 14.7174 13.7188 14.9883 13.7188C15.2591 13.7188 15.4453 13.7188 15.5469 13.7188C15.8516 13.7188 16.0547 13.8711 16.1562 14.1758C16.7318 15.5638 17.0195 16.2578 17.0195 16.2578C17.1211 16.4609 17.138 16.6302 17.0703 16.7656C16.9349 17.0703 16.7656 17.3411 16.5625 17.5781C16.3594 17.7812 16.2409 17.8997 16.207 17.9336C16.1732 17.9674 16.1901 18.0859 16.2578 18.2891C16.7318 19.1693 17.2396 19.8294 17.7812 20.2695C18.3568 20.7096 19.1185 21.1667 20.0664 21.6406C20.3372 21.776 20.5404 21.7591 20.6758 21.5898C21.1159 21.082 21.4206 20.7096 21.5898 20.4727C21.7253 20.2695 21.9284 20.2188 22.1992 20.3203C22.4701 20.4219 23.1133 20.7266 24.1289 21.2344Z" fill="white"/>
</svg>
