<svg width="390" height="40" viewBox="0 0 390 40" fill="none" xmlns="http://www.w3.org/2000/svg">
    <g clip-path="url(#clip0_7183_15297)">
        <path
            d="M306.679 105.298C311.712 98.6357 374.357 17.595 374.743 17.0917C377.045 14.3474 380.118 13.6372 382.767 15.2413C383.426 15.6366 383.99 16.1594 384.423 16.7769C384.857 17.3943 385.151 18.0932 385.287 18.8298C385.547 20.1701 387.257 34.9765 387.9 40.6016C388.015 41.9537 388.633 43.2126 389.643 44.1496C390.652 45.0865 391.986 45.6395 393.402 45.7079C394.818 45.7764 396.222 45.3558 397.359 44.5226C398.496 43.6895 399.291 42.4989 399.6 41.1672C399.655 40.9319 399.136 43.8016 402.042 27.6439"
            stroke="white" stroke-width="0.5" stroke-miterlimit="10" />
        <path d="M405.096 -8.20796C403.615 0.0438333 402.159 8.31117 399.855 21.1077" stroke="white" stroke-width="0.5"
            stroke-miterlimit="10" />
        <path
            d="M304.219 103.454C309.39 96.6203 372.14 15.4304 372.223 15.3193L372.26 15.2639C375.551 11.322 380.439 10.2888 384.415 12.6967C385.425 13.3113 386.29 14.1181 386.957 15.0682C387.625 16.0183 388.081 17.0919 388.299 18.2239C388.627 19.9415 390.85 39.3972 390.941 40.224L390.95 40.2756C391.003 40.92 391.296 41.5206 391.776 41.9682C392.256 42.4159 392.89 42.6808 393.565 42.7149C394.239 42.749 394.909 42.5501 395.452 42.1541C395.994 41.7582 396.374 41.1917 396.522 40.5574C396.609 40.1312 396.781 39.0252 398.932 27.0634"
            stroke="white" stroke-width="0.5" stroke-miterlimit="10" />
        <path d="M372.931 11.2444L373.312 12.9688L371.503 13.3682" stroke="white" stroke-width="0.5"
            stroke-miterlimit="10" />
        <path d="M353.74 9.55925L358.371 12.3618L368.684 10.092L373.32 12.8982" stroke="white" stroke-width="0.5"
            stroke-miterlimit="10" />
        <path d="M361.251 1.46334L363.818 0.899194" stroke="white" stroke-width="0.5" stroke-miterlimit="10" />
        <path d="M362.264 -0.0411814L362.806 2.40372" stroke="white" stroke-width="0.5" stroke-miterlimit="10" />
        <path d="M367.308 10.4211L365.674 3.06254L364.165 2.14969" stroke="white" stroke-width="0.5"
            stroke-miterlimit="10" />
        <path d="M364.624 1.40071L363.624 2.89349" stroke="white" stroke-width="0.5" stroke-miterlimit="10" />
        <path
            d="M353.612 6.27097C353.374 5.9217 353.061 5.62612 352.692 5.40378L352.236 6.0812C351.856 5.84999 351.41 5.73321 350.955 5.74566C350.501 5.7581 350.057 5.89921 349.682 6.15111C349.307 6.40301 349.016 6.75438 348.846 7.16076C348.677 7.56715 348.636 8.01026 348.729 8.43403C348.823 8.8578 349.046 9.24318 349.371 9.54138C349.696 9.83958 350.108 10.0372 350.555 10.1092C351.002 10.1813 351.464 10.1245 351.882 9.94604C352.3 9.76761 352.655 9.47557 352.904 9.10686L353.604 9.53027C353.874 9.12882 354.042 8.67362 354.094 8.20199C354.146 7.73035 354.081 7.25572 353.903 6.81696"
            stroke="white" stroke-width="0.5" stroke-miterlimit="10" />
        <path
            d="M351.486 7.18813C351.64 7.28112 351.76 7.41615 351.833 7.57613C351.905 7.73612 351.925 7.91387 351.892 8.08691C351.858 8.25996 351.772 8.42052 351.644 8.5483C351.515 8.67609 351.351 8.76535 351.172 8.8048C350.992 8.84425 350.805 8.83211 350.635 8.76993C350.465 8.70775 350.318 8.59831 350.215 8.45545C350.111 8.3126 350.054 8.14276 350.052 7.96738C350.05 7.79201 350.102 7.61899 350.203 7.47021C350.269 7.37119 350.355 7.28531 350.455 7.2175C350.556 7.14969 350.669 7.10129 350.788 7.07507C350.907 7.04886 351.03 7.04536 351.15 7.06476C351.27 7.08416 351.384 7.12609 351.486 7.18813Z"
            stroke="white" stroke-width="0.5" stroke-miterlimit="10" />
        <path
            d="M351.233 7.56305C351.312 7.61049 351.373 7.67939 351.41 7.76101C351.447 7.84263 351.457 7.93333 351.44 8.02161C351.423 8.1099 351.379 8.19182 351.314 8.25702C351.248 8.32221 351.164 8.36775 351.073 8.38788C350.981 8.408 350.886 8.40182 350.799 8.37009C350.712 8.33837 350.637 8.28253 350.585 8.20965C350.532 8.13676 350.503 8.0501 350.502 7.96062C350.501 7.87115 350.527 7.78287 350.578 7.70696C350.647 7.60517 350.754 7.53282 350.877 7.50583C351 7.47884 351.128 7.49942 351.233 7.56305Z"
            stroke="white" stroke-width="0.5" stroke-miterlimit="10" />
        <path
            d="M348.639 6.11986C348.697 6.15474 348.742 6.20538 348.769 6.26537C348.796 6.32536 348.804 6.39202 348.791 6.45691C348.778 6.5218 348.746 6.58201 348.698 6.62993C348.65 6.67785 348.588 6.71132 348.521 6.72611C348.454 6.74091 348.384 6.73636 348.32 6.71304C348.256 6.68972 348.201 6.64868 348.162 6.59511C348.123 6.54154 348.102 6.47785 348.101 6.41208C348.1 6.34632 348.12 6.28144 348.158 6.22564C348.208 6.15083 348.287 6.09765 348.377 6.07781C348.468 6.05797 348.562 6.0731 348.639 6.11986Z"
            stroke="white" stroke-width="0.5" stroke-miterlimit="10" />
        <path
            d="M352.522 8.47675C352.579 8.51195 352.624 8.56279 352.651 8.62285C352.677 8.68291 352.685 8.74952 352.672 8.81426C352.659 8.879 352.626 8.93898 352.578 8.98664C352.53 9.03429 352.468 9.06749 352.401 9.08204C352.333 9.0966 352.264 9.09186 352.2 9.06842C352.136 9.04498 352.081 9.0039 352.043 8.95034C352.004 8.89678 351.983 8.83316 351.982 8.76749C351.981 8.70182 352.001 8.63704 352.038 8.58133C352.064 8.54412 352.096 8.51188 352.134 8.48647C352.172 8.46105 352.214 8.44296 352.259 8.43324C352.304 8.42352 352.351 8.42236 352.396 8.42983C352.441 8.4373 352.484 8.45325 352.522 8.47675Z"
            stroke="white" stroke-width="0.5" stroke-miterlimit="10" />
        <path
            d="M349.408 8.34456C349.49 8.30407 349.585 8.29565 349.672 8.32113C349.76 8.3466 349.832 8.40394 349.875 8.48083C349.895 8.51943 349.908 8.56171 349.911 8.60524C349.915 8.64877 349.91 8.69271 349.895 8.73454C349.881 8.77637 349.859 8.81528 349.829 8.84904C349.799 8.88281 349.763 8.91077 349.722 8.93132C349.681 8.95187 349.637 8.96462 349.591 8.96884C349.546 8.97305 349.5 8.96865 349.456 8.95589C349.413 8.94312 349.373 8.92224 349.338 8.89444C349.303 8.86664 349.275 8.83247 349.254 8.79386C349.213 8.71568 349.206 8.62471 349.235 8.54062C349.264 8.45654 349.326 8.38611 349.408 8.34456Z"
            stroke="white" stroke-width="0.5" stroke-miterlimit="10" />
        <path
            d="M353.484 6.32724C353.546 6.29599 353.615 6.28268 353.683 6.289C353.752 6.29531 353.816 6.32096 353.869 6.36269C353.921 6.40442 353.959 6.46036 353.978 6.52341C353.997 6.58646 353.996 6.65378 353.974 6.71683C353.953 6.77988 353.913 6.83582 353.859 6.87756C353.805 6.91929 353.739 6.94495 353.67 6.95127C353.602 6.95759 353.533 6.94429 353.473 6.91305C353.413 6.88181 353.364 6.83405 353.333 6.77581C353.292 6.6982 353.284 6.60748 353.313 6.52344C353.341 6.43941 353.403 6.36888 353.484 6.32724Z"
            stroke="white" stroke-width="0.5" stroke-miterlimit="10" />
        <path
            d="M350.5 10.7821C350.504 10.7162 350.528 10.6525 350.569 10.599C350.61 10.5455 350.667 10.5046 350.732 10.4816C350.797 10.4585 350.867 10.4543 350.934 10.4695C351.001 10.4846 351.061 10.5185 351.107 10.5668C351.153 10.6151 351.182 10.6756 351.192 10.7407C351.202 10.8057 351.191 10.8724 351.161 10.9323C351.131 10.9922 351.083 11.0425 351.024 11.0769C350.964 11.1113 350.896 11.1283 350.827 11.1256C350.735 11.122 350.65 11.0839 350.588 11.0196C350.527 10.9552 350.495 10.8698 350.5 10.7821Z"
            stroke="white" stroke-width="0.5" stroke-miterlimit="10" />
        <path
            d="M350.704 6.40277C350.707 6.33692 350.731 6.2732 350.773 6.2197C350.814 6.1662 350.871 6.12532 350.936 6.10226C351.001 6.0792 351.071 6.075 351.138 6.09017C351.204 6.10535 351.264 6.13923 351.31 6.18751C351.356 6.23579 351.386 6.29631 351.396 6.36138C351.405 6.42645 351.394 6.49313 351.364 6.55299C351.334 6.61285 351.287 6.66318 351.227 6.69759C351.168 6.73201 351.099 6.74896 351.031 6.74629C350.985 6.74483 350.941 6.73476 350.899 6.71668C350.858 6.6986 350.822 6.67285 350.791 6.64092C350.761 6.60899 350.737 6.57151 350.722 6.53064C350.707 6.48977 350.701 6.44631 350.704 6.40277Z"
            stroke="white" stroke-width="0.5" stroke-miterlimit="10" />
        <path
            d="M-10.6674 23.3811C-17.6874 20.7895 -22.7907 18.9003 -23.1075 18.7735C-23.6478 18.5328 -24.1413 18.2067 -24.5673 17.8091C-25.2886 17.1348 -25.786 16.2735 -25.9978 15.332C-26.2096 14.3905 -26.1264 13.4102 -25.7586 12.5128C-25.3909 11.6154 -24.7546 10.8404 -23.9289 10.2838C-23.1031 9.7273 -22.1242 9.41374 -21.1135 9.38206L-20.9775 9.36802C-19.7955 9.21925 -14.9886 10.5768 1.16951 17.9081C3.35205 18.8959 3.57427 18.988 3.79773 19.0501C4.93414 19.3399 6.13966 19.2633 7.22621 18.8322C8.31277 18.4011 9.21927 17.6397 9.80431 16.6669C10.3894 15.6941 10.62 14.5644 10.4604 13.4542C10.3007 12.3441 9.75968 11.3157 8.92168 10.5297C8.36348 10.0075 -25.1507 -10.6355 -35.7921 -17.1884"
            stroke="white" stroke-width="0.5" stroke-miterlimit="10" />
        <path d="M20 34.7029C11.5493 31.584 2.90389 28.4327 -5.871 25.1942" stroke="white" stroke-width="0.5"
            stroke-miterlimit="10" />
        <path
            d="M78.5804 130.258C73.4291 124.874 11.0453 58.1964 10.6571 57.7853C8.57991 55.3759 8.5244 52.682 10.5164 50.7506C11.0084 50.2698 11.5992 49.8908 12.2518 49.6373C12.9045 49.3839 13.6049 49.2614 14.3093 49.2775C15.5931 49.2974 29.5519 50.482 34.8537 50.9376C36.1203 51.0806 37.3991 50.7861 38.4579 50.1077C39.5166 49.4292 40.2851 48.4118 40.6238 47.2403C40.9624 46.0687 40.8487 44.8207 40.3033 43.723C39.7579 42.6252 38.8171 41.7505 37.6516 41.2577C37.4458 41.1698 39.9857 42.1103 25.6821 36.828"
            stroke="white" stroke-width="0.5" stroke-miterlimit="10" />
        <path
            d="M-11.7145 25.8497C-19.5224 22.9645 -24.0689 21.2798 -24.2731 21.1904C-25.8969 20.4796 -27.2216 19.2686 -28.0338 17.7525C-28.8461 16.2365 -29.0984 14.5037 -28.7503 12.8334C-28.4023 11.1632 -27.474 9.65264 -26.115 8.54528C-24.7561 7.43792 -23.0456 6.79822 -21.2594 6.72926C-18.7662 6.48185 -11.8917 9.03908 2.37508 15.5053C3.38004 15.9679 4.32782 16.394 4.58457 16.4985C5.12415 16.6228 5.69178 16.5751 6.20051 16.3628C6.70923 16.1505 7.13099 15.7853 7.40118 15.3231C7.67136 14.8609 7.77507 14.3272 7.69641 13.8038C7.61775 13.2804 7.36107 12.7962 6.96568 12.4252C6.28603 11.8714 -28.9636 -9.82166 -37.7862 -15.2552"
            stroke="white" stroke-width="0.5" stroke-miterlimit="10" />
        <path d="M-6.91434 27.6617C0.386546 30.3549 7.70671 33.0293 19.0273 37.2111" stroke="white" stroke-width="0.5"
            stroke-miterlimit="10" />
        <path
            d="M76.4363 131.96C71.1534 126.43 8.64862 59.6316 8.56254 59.5426L8.51879 59.5017C5.53165 56.0546 5.53237 51.7857 8.5226 48.8864C9.28475 48.1511 10.1956 47.5706 11.2 47.1803C12.2043 46.79 13.2813 46.5979 14.3655 46.6156C16.01 46.6451 34.3485 48.2223 35.1271 48.2923L35.1765 48.2933C35.7798 48.3629 36.3896 48.2241 36.8949 47.9021C37.4003 47.58 37.7678 47.096 37.9305 46.5381C38.0932 45.9802 38.0404 45.3854 37.7817 44.8618C37.523 44.3381 37.0755 43.9205 36.5206 43.6846C36.1453 43.5369 35.1608 43.1981 24.5708 39.2875"
            stroke="white" stroke-width="0.5" stroke-miterlimit="10" />
        <path d="M19.3096 26.3229L18.1265 25.2162" stroke="white" stroke-width="0.5" stroke-miterlimit="10" />
        <path d="M19.2969 25.2059L18.1348 26.3327" stroke="white" stroke-width="0.5" stroke-miterlimit="10" />
        <path d="M17.0078 24.1716L15.8247 23.0648" stroke="white" stroke-width="0.5" stroke-miterlimit="10" />
        <path d="M16.998 23.0547L15.8359 24.1815" stroke="white" stroke-width="0.5" stroke-miterlimit="10" />
        <path d="M14.5732 21.8941L13.3901 20.7874" stroke="white" stroke-width="0.5" stroke-miterlimit="10" />
        <path d="M14.5635 20.7777L13.4014 21.9044" stroke="white" stroke-width="0.5" stroke-miterlimit="10" />
        <path d="M46.1846 23.9138L45.0015 22.807" stroke="white" stroke-width="0.5" stroke-miterlimit="10" />
        <path d="M46.1748 22.7969L45.0127 23.9236" stroke="white" stroke-width="0.5" stroke-miterlimit="10" />
        <path d="M49.1709 23.3685L49.1509 21.1321" stroke="white" stroke-width="0.5" stroke-miterlimit="10" />
        <path d="M50.335 22.2398L47.9867 22.2608" stroke="white" stroke-width="0.5" stroke-miterlimit="10" />
        <path d="M32.7923 26.8785L39.7669 20.1161L46.8118 20.0545L47.958 21.1267" stroke="white" stroke-width="0.5"
            stroke-miterlimit="10" />
        <path d="M48.541 20.5631L47.3774 21.6913" stroke="white" stroke-width="0.5" stroke-miterlimit="10" />
        <path d="M29.8263 30.7559L33.3193 27.3691L32.137 26.2631L28.644 29.6499L29.8263 30.7559Z" stroke="white"
            stroke-width="0.5" stroke-miterlimit="10" />
        <path d="M29.2354 30.2021L24.6714 34.6272" stroke="white" stroke-width="0.5" stroke-miterlimit="10" />
        <path
            d="M24.7104 39.1477C24.2502 39.5939 23.6615 39.9002 23.0189 40.0279C22.3762 40.1556 21.7083 40.099 21.0998 39.8652C20.4912 39.6314 19.9693 39.2309 19.5999 38.7144C19.2306 38.1979 19.0305 37.5885 19.0249 36.9634C19.0193 36.3382 19.2085 35.7254 19.5685 35.2024C19.9286 34.6793 20.4433 34.2696 21.0475 34.0249C21.6518 33.7803 22.3185 33.7117 22.9634 33.8279C23.6083 33.9441 24.2023 34.2399 24.6704 34.6777C24.9817 34.9682 25.2297 35.3144 25.4003 35.6964C25.5708 36.0784 25.6605 36.4888 25.6642 36.904C25.6679 37.3192 25.5856 37.7311 25.4219 38.1161C25.2582 38.5011 25.0164 38.8517 24.7104 39.1477Z"
            stroke="white" stroke-width="0.5" stroke-miterlimit="10" />
        <path
            d="M24.3408 38.8024C23.9527 39.1793 23.4559 39.4382 22.9135 39.5463C22.371 39.6544 21.8073 39.6068 21.2935 39.4096C20.7797 39.2125 20.339 38.8745 20.0272 38.4386C19.7153 38.0026 19.5464 37.4883 19.5417 36.9606C19.5369 36.4329 19.6967 35.9156 20.0007 35.4741C20.3047 35.0327 20.7392 34.6869 21.2494 34.4806C21.7596 34.2742 22.3224 34.2166 22.8667 34.315C23.411 34.4134 23.9123 34.6633 24.3071 35.0333C24.8364 35.5284 25.1373 36.2036 25.1436 36.9105C25.1499 37.6173 24.8611 38.2979 24.3408 38.8024Z"
            stroke="white" stroke-width="0.5" stroke-miterlimit="10" />
        <path
            d="M20.6821 36.8373C20.6657 37.0642 20.7011 37.2918 20.7858 37.5044C20.8705 37.717 21.0025 37.9095 21.1728 38.0689C21.3432 38.2282 21.5477 38.3505 21.7724 38.4273C21.9971 38.5042 22.2367 38.5338 22.4746 38.5141"
            stroke="white" stroke-width="0.5" stroke-miterlimit="10" />
        <path
            d="M23.7009 36.0432C23.9206 36.345 24.0227 36.7104 23.9893 37.0765C23.956 37.4425 23.7894 37.786 23.5184 38.0476C23.3838 38.1789 23.2257 38.2864 23.0516 38.3651"
            stroke="white" stroke-width="0.5" stroke-miterlimit="10" />
        <path
            d="M20.8299 36.2863C20.9094 36.1191 21.0194 35.9667 21.1549 35.8361C21.4247 35.5734 21.7823 35.4086 22.166 35.3703C22.5496 35.332 22.9352 35.4226 23.2559 35.6265"
            stroke="white" stroke-width="0.5" stroke-miterlimit="10" />
        <path
            d="M22.9363 37.4887C22.8212 37.6008 22.6739 37.6779 22.5129 37.7102C22.3519 37.7426 22.1845 37.7287 22.0319 37.6704C21.8792 37.6121 21.7483 37.5119 21.6555 37.3826C21.5627 37.2533 21.5123 37.1007 21.5107 36.944C21.5091 36.7873 21.5563 36.6337 21.6464 36.5025C21.7365 36.3714 21.8654 36.2686 22.0168 36.2072C22.1682 36.1458 22.3353 36.1285 22.4969 36.1576C22.6586 36.1867 22.8075 36.2608 22.9248 36.3705C23.0027 36.4431 23.0649 36.5296 23.1077 36.6251C23.1505 36.7206 23.1731 36.8232 23.1741 36.9271C23.1752 37.031 23.1547 37.1341 23.1139 37.2304C23.0731 37.3268 23.0127 37.4145 22.9363 37.4887Z"
            stroke="white" stroke-width="0.5" stroke-miterlimit="10" />
        <path
            d="M23.9642 35.9273C23.9055 35.9842 23.8305 36.0232 23.7485 36.0395C23.6666 36.0558 23.5815 36.0485 23.5039 36.0187C23.4263 35.9889 23.3598 35.9379 23.3127 35.872C23.2657 35.8062 23.2402 35.7285 23.2394 35.6488C23.2387 35.5692 23.2628 35.491 23.3087 35.4244C23.3546 35.3577 23.4202 35.3055 23.4973 35.2743C23.5743 35.2431 23.6593 35.2344 23.7415 35.2492C23.8237 35.264 23.8994 35.3017 23.9591 35.3575C24.0391 35.4323 24.0846 35.5344 24.0855 35.6413C24.0865 35.7481 24.0428 35.851 23.9642 35.9273Z"
            stroke="white" stroke-width="0.5" stroke-miterlimit="10" />
        <path
            d="M23.2417 38.5972C23.2658 38.6742 23.2652 38.7563 23.24 38.8329C23.2147 38.9096 23.166 38.9774 23.1 39.0275C23.0341 39.0776 22.9539 39.1078 22.8698 39.1143C22.7857 39.1207 22.7016 39.1031 22.6281 39.0636C22.5547 39.0241 22.4954 38.9647 22.4577 38.8928C22.4201 38.8209 22.4058 38.74 22.4169 38.6603C22.4279 38.5807 22.4637 38.506 22.5196 38.4458C22.5755 38.3856 22.649 38.3427 22.7307 38.3226C22.8367 38.2965 22.9492 38.3105 23.0445 38.3617C23.1398 38.4129 23.2105 38.4973 23.2417 38.5972Z"
            stroke="white" stroke-width="0.5" stroke-miterlimit="10" />
        <path
            d="M20.5833 36.1112C20.6654 36.1298 20.7396 36.1714 20.7966 36.2306C20.8536 36.2898 20.8907 36.3638 20.9032 36.4433C20.9156 36.5227 20.9028 36.6039 20.8665 36.6764C20.8301 36.7489 20.7719 36.8095 20.6991 36.8503C20.6264 36.891 20.5426 36.9102 20.4584 36.9052C20.3742 36.9003 20.2935 36.8715 20.2267 36.8226C20.1599 36.7736 20.1099 36.7068 20.0833 36.6306C20.0567 36.5544 20.0546 36.4723 20.0773 36.3949C20.1068 36.2945 20.176 36.2088 20.2703 36.1559C20.3647 36.103 20.4769 36.087 20.5833 36.1112Z"
            stroke="white" stroke-width="0.5" stroke-miterlimit="10" />
    </g>
    <defs>
        <clipPath id="clip0_7183_15297">
            <rect width="390" height="40" fill="white" />
        </clipPath>
    </defs>
</svg>