<svg width="1440" height="60" viewBox="0 0 1440 60" fill="none" xmlns="http://www.w3.org/2000/svg">
<g clip-path="url(#clip0_7183_15187)">
<path d="M1147.12 61.8384C1115.38 53.8837 1092.3 48.0773 1090.86 47.6736C1088.39 46.8748 1086.08 45.6643 1084.01 44.0934C1080.52 41.4289 1077.89 37.7972 1076.44 33.6488C1074.99 29.5004 1074.79 25.0179 1075.86 20.7574C1076.94 16.4968 1079.24 12.6458 1082.49 9.68183C1085.73 6.7179 1089.77 4.77159 1094.11 4.08432L1094.69 3.94756C1099.7 2.63796 1121.2 6.19717 1195.05 30.6918C1205.02 33.9892 1206.03 34.2863 1207.03 34.4472C1212.1 35.1478 1217.25 34.1523 1221.69 31.616C1226.13 29.0796 1229.61 25.145 1231.58 20.426C1233.55 15.707 1233.9 10.4689 1232.58 5.52882C1231.26 0.588764 1228.34 -3.77543 1224.28 -6.88302C1221.58 -8.9466 1065.31 -84.3655 1015.7 -108.305" stroke="white" stroke-width="0.69" stroke-miterlimit="10"/>
<path d="M1285.76 96.5656C1247.55 86.9939 1208.48 77.3801 1168.8 67.4413" stroke="white" stroke-width="0.69" stroke-miterlimit="10"/>
<path d="M1144.01 73.5847C1108.7 64.7249 1088.14 59.5444 1087.21 59.2498C1079.8 56.9055 1073.4 52.1358 1069.03 45.7095C1064.67 39.2832 1062.6 31.5745 1063.15 23.8255C1063.7 16.0765 1066.84 8.7385 1072.07 2.99399C1077.3 -2.75051 1084.31 -6.56697 1091.97 -7.84045C1102.58 -10.3021 1133.68 -2.42453 1198.88 19.1717C1203.48 20.7252 1207.81 22.1441 1208.98 22.4793C1211.37 22.7516 1213.79 22.2303 1215.87 20.9954C1217.94 19.7606 1219.55 17.8801 1220.45 15.6423C1221.35 13.4044 1221.5 10.9325 1220.86 8.60529C1220.22 6.27805 1218.84 4.22385 1216.93 2.75735C1213.68 0.615695 1049.34 -78.6236 1008.2 -98.4743" stroke="white" stroke-width="0.69" stroke-miterlimit="10"/>
<path d="M1165.7 79.1767C1198.72 87.4399 1231.8 95.6081 1283 108.447" stroke="white" stroke-width="0.69" stroke-miterlimit="10"/>
<path d="M1278.03 58.9724L1272.3 54.5998" stroke="white" stroke-width="0.69" stroke-miterlimit="10"/>
<path d="M1277.34 53.9204L1272.97 59.6501" stroke="white" stroke-width="0.69" stroke-miterlimit="10"/>
<path d="M1266.89 50.4735L1261.16 46.1009" stroke="white" stroke-width="0.69" stroke-miterlimit="10"/>
<path d="M1266.21 45.4215L1261.84 51.1513" stroke="white" stroke-width="0.69" stroke-miterlimit="10"/>
<path d="M1255.1 41.476L1249.37 37.1034" stroke="white" stroke-width="0.69" stroke-miterlimit="10"/>
<path d="M1254.42 36.4258L1250.05 42.1555" stroke="white" stroke-width="0.69" stroke-miterlimit="10"/>
<path d="M1392.57 33.5486L1386.84 29.176" stroke="white" stroke-width="0.69" stroke-miterlimit="10"/>
<path d="M1391.89 28.4966L1387.52 34.2264" stroke="white" stroke-width="0.69" stroke-miterlimit="10"/>
<path d="M1405.13 29.467L1403.77 19.3518" stroke="white" stroke-width="0.69" stroke-miterlimit="10"/>
<path d="M1409.51 23.7299L1399.39 25.0889" stroke="white" stroke-width="0.69" stroke-miterlimit="10"/>
<path d="M1336.49 54.1945L1362.72 19.8161L1393.08 15.745L1398.63 19.9837" stroke="white" stroke-width="0.69" stroke-miterlimit="10"/>
<path d="M1400.83 17.1041L1396.45 22.8412" stroke="white" stroke-width="0.69" stroke-miterlimit="10"/>
<path d="M1325.9 73.3642L1339.04 56.1458L1333.31 51.7732L1320.17 68.9916L1325.9 73.3642Z" stroke="white" stroke-width="0.69" stroke-miterlimit="10"/>
<path d="M292.478 40.1268C325.093 42.8217 348.811 44.8036 350.295 44.9684C352.859 45.3562 355.339 46.1749 357.629 47.39C361.509 49.4519 364.699 52.6076 366.802 56.4656C368.906 60.3237 369.83 64.7144 369.461 69.093C369.091 73.4716 367.445 77.6454 364.725 81.0967C362.005 84.548 358.332 87.1249 354.161 88.5077L353.613 88.7366C348.879 90.8426 327.087 90.8215 250.243 78.6418C239.867 77.0075 238.821 76.8784 237.81 76.8818C232.698 77.0128 227.773 78.8321 223.804 82.0557C219.835 85.2793 217.044 89.726 215.867 94.7021C214.69 99.6782 215.193 104.904 217.298 109.564C219.403 114.224 222.991 118.057 227.502 120.464C230.505 122.061 396.938 171.108 449.782 186.674" stroke="white" stroke-width="0.69" stroke-miterlimit="10"/>
<path d="M150.037 28.371C189.297 31.6113 229.411 34.7537 270.178 38.1182" stroke="white" stroke-width="0.69" stroke-miterlimit="10"/>
<path d="M-217.893 -317.488C-189.446 -300.277 156.961 -85.4002 159.111 -84.0795C170.891 -76.0969 174.615 -64.3809 168.818 -53.4799C167.391 -50.7711 165.42 -48.386 163.029 -46.4738C160.638 -44.5616 157.878 -43.1635 154.921 -42.3671C149.545 -40.8735 89.8405 -28.8718 67.1562 -24.338C61.6927 -23.4042 56.7453 -20.5418 53.2127 -16.2707C49.68 -11.9995 47.7965 -6.60303 47.9041 -1.06133C48.0117 4.48036 50.1034 9.79965 53.7993 13.9304C57.4951 18.0611 62.5499 20.7292 68.0456 21.4502C69.017 21.5815 57.2137 20.594 123.668 26.0927" stroke="white" stroke-width="0.69" stroke-miterlimit="10"/>
<path d="M293.638 28.0316C329.919 31.0407 351.05 32.8137 352.018 32.9532C359.706 34.0639 366.797 37.7308 372.148 43.3632C377.498 48.9955 380.796 56.2652 381.511 64.0008C382.226 71.7364 380.316 79.4873 376.088 86.0048C371.86 92.5222 365.561 97.4264 358.206 99.9273C348.137 104.079 316.172 101.355 248.331 90.6314C243.543 89.8448 239.041 89.1477 237.835 89.0063C235.426 89.127 233.122 90.0343 231.277 91.5894C229.432 93.1444 228.148 95.2614 227.621 97.6161C227.094 99.9707 227.354 102.433 228.361 104.626C229.367 106.819 231.064 108.621 233.193 109.757C236.744 111.344 411.772 162.848 455.585 175.757" stroke="white" stroke-width="0.69" stroke-miterlimit="10"/>
<path d="M271.327 26.0359C237.41 23.2425 203.437 20.5546 150.838 16.1978" stroke="white" stroke-width="0.69" stroke-miterlimit="10"/>
<path d="M-211.153 -327.584C-181.97 -309.898 165.098 -94.6386 165.572 -94.3553L165.808 -94.2301C182.724 -82.8283 188.256 -64.1535 179.553 -47.7899C177.331 -43.635 174.287 -39.9746 170.608 -37.0308C166.929 -34.0869 162.69 -31.9208 158.148 -30.6638C151.257 -28.7683 72.7924 -13.0924 69.4571 -12.44L69.2501 -12.3835C66.6454 -11.9456 64.2843 -10.5878 62.5959 -8.55678C60.9074 -6.52578 60.0036 -3.9564 60.0488 -1.31559C60.094 1.32522 61.0851 3.8622 62.842 5.83428C64.5989 7.80636 67.0051 9.08266 69.6232 9.43124C71.3788 9.61519 75.9206 9.88558 125.121 13.9555" stroke="white" stroke-width="0.69" stroke-miterlimit="10"/>
<path d="M114.196 57.7818L104.026 76.9052L110.39 80.2894L120.56 61.166L114.196 57.7818Z" stroke="white" stroke-width="0.69" stroke-miterlimit="10"/>
<path d="M117.38 59.4745L130.671 34.4826" stroke="white" stroke-width="0.69" stroke-miterlimit="10"/>
<path d="M124.652 14.7461C125.992 12.2273 128.048 10.1622 130.561 8.81212C133.075 7.462 135.932 6.88745 138.771 7.1611C141.611 7.43476 144.306 8.54433 146.515 10.3495C148.724 12.1547 150.348 14.5744 151.182 17.3027C152.016 20.031 152.022 22.9452 151.2 25.677C150.377 28.4087 148.763 30.8353 146.562 32.6497C144.36 34.4642 141.67 35.5851 138.832 35.8707C135.993 36.1563 133.134 35.5938 130.615 34.2543C128.941 33.3667 127.458 32.1575 126.252 30.696C125.046 29.2346 124.14 27.5495 123.586 25.7373C123.032 23.9252 122.841 22.0215 123.024 20.1355C123.207 18.2494 123.761 16.418 124.652 14.7461Z" stroke="white" stroke-width="0.69" stroke-miterlimit="10"/>
<path d="M126.639 15.8027C127.768 13.6756 129.503 11.9313 131.624 10.7904C133.744 9.64956 136.156 9.16341 138.553 9.3935C140.95 9.62359 143.225 10.5596 145.09 12.083C146.955 13.6065 148.326 15.6489 149.03 17.9519C149.734 20.2549 149.739 22.715 149.045 25.0208C148.35 27.3266 146.987 29.3745 145.128 30.9055C143.269 32.4364 140.998 33.3815 138.602 33.6213C136.205 33.861 133.792 33.3845 131.667 32.2522C128.819 30.7376 126.689 28.1536 125.746 25.0687C124.803 21.9838 125.124 18.6507 126.639 15.8027Z" stroke="white" stroke-width="0.69" stroke-miterlimit="10"/>
<path d="M144.434 19.8934C144.209 18.8806 143.766 17.9287 143.138 17.103C142.509 16.2773 141.709 15.5976 140.793 15.1103C139.877 14.6231 138.866 14.34 137.83 14.2804C136.794 14.2208 135.757 14.3863 134.792 14.7653" stroke="white" stroke-width="0.69" stroke-miterlimit="10"/>
<path d="M132.882 27.0896C131.575 26.0399 130.676 24.5662 130.34 22.9236C130.004 21.281 130.253 19.5727 131.044 18.0942C131.435 17.3538 131.954 16.6887 132.578 16.1299" stroke="white" stroke-width="0.69" stroke-miterlimit="10"/>
<path d="M144.534 22.4882C144.42 23.3177 144.159 24.1202 143.763 24.8583C142.979 26.3403 141.702 27.5018 140.152 28.1418C138.603 28.7817 136.878 28.86 135.277 28.3629" stroke="white" stroke-width="0.69" stroke-miterlimit="10"/>
<path d="M134.195 19.8217C134.529 19.1896 135.043 18.6708 135.672 18.331C136.301 17.9913 137.017 17.8458 137.729 17.913C138.44 17.9802 139.116 18.2571 139.67 18.7087C140.225 19.1602 140.633 19.766 140.843 20.4495C141.052 21.133 141.055 21.8634 140.849 22.5482C140.644 23.233 140.24 23.8415 139.689 24.2966C139.137 24.7517 138.463 25.0329 137.752 25.1047C137.04 25.1765 136.324 25.0356 135.692 24.6999C135.273 24.4784 134.902 24.1764 134.6 23.8112C134.298 23.446 134.07 23.0247 133.931 22.5716C133.792 22.1184 133.744 21.6423 133.789 21.1704C133.834 20.6985 133.972 20.2402 134.195 19.8217Z" stroke="white" stroke-width="0.69" stroke-miterlimit="10"/>
<path d="M131.94 27.9206C132.111 27.5995 132.373 27.3363 132.694 27.1642C133.014 26.9921 133.378 26.9188 133.74 26.9537C134.102 26.9886 134.446 27.13 134.727 27.3601C135.009 27.5902 135.216 27.8987 135.322 28.2465C135.428 28.5942 135.429 28.9657 135.324 29.3139C135.22 29.6621 135.014 29.9714 134.733 30.2027C134.453 30.434 134.11 30.5769 133.748 30.6133C133.386 30.6497 133.022 30.578 132.701 30.4073C132.27 30.1783 131.948 29.7877 131.805 29.3213C131.663 28.855 131.712 28.3511 131.94 27.9206Z" stroke="white" stroke-width="0.69" stroke-miterlimit="10"/>
<path d="M131.497 15.3454C131.297 15.0383 131.193 14.6784 131.199 14.3119C131.205 13.9453 131.32 13.5889 131.53 13.2884C131.74 12.9878 132.035 12.7569 132.377 12.6252C132.719 12.4935 133.093 12.4671 133.45 12.5494C133.807 12.6316 134.132 12.8188 134.382 13.0869C134.632 13.3549 134.796 13.6916 134.853 14.0536C134.911 14.4157 134.858 14.7866 134.703 15.1188C134.548 15.451 134.298 15.7293 133.983 15.9178C133.575 16.1626 133.088 16.2397 132.625 16.1329C132.161 16.0262 131.757 15.7439 131.497 15.3454Z" stroke="white" stroke-width="0.69" stroke-miterlimit="10"/>
<path d="M145.789 22.9477C145.423 22.9671 145.059 22.8766 144.745 22.6878C144.431 22.4991 144.18 22.2207 144.025 21.8885C143.87 21.5562 143.818 21.1852 143.876 20.8232C143.933 20.4612 144.098 20.1246 144.348 19.8566C144.598 19.5887 144.923 19.4017 145.28 19.3196C145.637 19.2375 146.011 19.2641 146.353 19.396C146.695 19.5278 146.99 19.7589 147.2 20.0595C147.409 20.3601 147.525 20.7166 147.53 21.0832C147.538 21.5588 147.36 22.0189 147.036 22.3666C146.711 22.7143 146.264 22.9226 145.789 22.9477Z" stroke="white" stroke-width="0.69" stroke-miterlimit="10"/>
</g>
<defs>
<clipPath id="clip0_7183_15187">
<rect width="1440" height="60" fill="white"/>
</clipPath>
</defs>
</svg>
