<?xml version="1.0" encoding="UTF-8"?>
<!DOCTYPE svg PUBLIC "-//W3C//DTD SVG 1.1//EN" "http://www.w3.org/Graphics/SVG/1.1/DTD/svg11.dtd">
<svg xmlns="http://www.w3.org/2000/svg" xml:space="preserve" width="1164px" height="293px" version="1.1" style="shape-rendering:geometricPrecision; text-rendering:geometricPrecision; image-rendering:optimizeQuality; fill-rule:evenodd; clip-rule:evenodd"
     viewBox="0 0 1164 293"
     xmlns:xlink="http://www.w3.org/1999/xlink">
 <defs>
  <style type="text/css">
   <![CDATA[
    .fil0 {fill:#2A56A4;fill-rule:nonzero}
    .fil1 {fill:#ED7134;fill-rule:nonzero}
    .fil2 {fill:white;fill-rule:nonzero}
   ]]>
  </style>
 </defs>
    <g id="Слой_x0020_1">
  <metadata id="CorelCorpID_0Corel-Layer"/>
        <g id="_823709744">
   <g>
    <path class="fil0" d="M185 13c2,0 3,1 3,3l0 80c0,2 2,3 4,3l78 0c1,0 3,2 3,3l0 187c0,2 -2,4 -3,4l-267 0c-2,0 -3,-2 -3,-4l0 -273c0,-2 1,-3 3,-3l182 0 0 0z"/>
       <path class="fil1" d="M201 83c0,2 1,4 3,4l78 0c2,0 3,-2 3,-4l0 -80c0,-2 -1,-3 -3,-3l-78 0c-2,0 -3,1 -3,3l0 80z"/>
       <g>
     <g>
      <path class="fil2" d="M388 279c0,1 0,1 1,1l26 0c14,0 22,-5 26,-17 1,-4 2,-8 2,-22 0,-14 -1,-18 -2,-23 -4,-11 -12,-16 -26,-16l-26 0c-1,0 -1,0 -1,1l0 76zm10 -9l0 0 0 -58c0,-1 0,-1 1,-1l14 0c10,0 16,3 18,11 1,3 2,7 2,19 0,12 -1,16 -2,19 -2,8 -8,11 -18,11l-14 0c-1,0 -1,-1 -1,-1z"/>
     </g>
           <g>
      <path class="fil2" d="M451 279c0,1 0,1 1,1l8 0c1,0 1,0 1,-1l6 -17 32 0 6 17c1,1 1,1 2,1l8 0c1,0 1,0 1,-1l-27 -76c0,-1 -1,-1 -2,-1l-7 0c-1,0 -1,0 -2,1l-27 76zm20 -27l0 0 12 -35 1 0 12 35 -25 0z"/>
     </g>
           <g>
      <path class="fil2" d="M545 280c1,0 1,0 1,-1l0 -67c0,-1 1,-1 1,-1l22 0c0,0 1,0 1,-1l0 -7c0,-1 -1,-1 -1,-1l-55 0c-1,0 -1,0 -1,1l0 7c0,1 0,1 1,1l21 0c1,0 1,0 1,1l0 67c0,1 1,1 1,1l8 0z"/>
     </g>
           <g>
      <path class="fil2" d="M567 279c0,1 0,1 1,1l8 0c0,0 1,0 1,-1l6 -17 32 0 6 17c0,1 1,1 2,1l8 0c0,0 1,0 0,-1l-27 -76c0,-1 0,-1 -1,-1l-8 0c0,0 -1,0 -1,1l-27 76zm20 -27l0 0 12 -35 0 0 13 35 -25 0z"/>
     </g>
           <g>
      <path class="fil2" d="M696 282c19,0 28,-10 28,-24 0,-13 -8,-20 -23,-22l-4 -1c-12,-1 -16,-6 -16,-12 0,-8 5,-13 15,-13 6,0 12,2 19,6 0,0 1,0 1,0l4 -7c1,0 1,-1 0,-1 -6,-5 -15,-8 -24,-8 -16,0 -26,9 -26,23 0,13 8,20 23,22l4 1c13,1 17,6 17,13 0,7 -7,13 -18,13 -9,0 -16,-4 -22,-8 0,-1 -1,-1 -1,0l-5 6c-1,1 -1,1 0,2 6,5 16,10 28,10z"/>
     </g>
           <g>
      <path class="fil2" d="M767 282c18,0 28,-11 28,-29l0 -50c0,-1 0,-1 -1,-1l-8 0c-1,0 -1,0 -1,1l0 50c0,12 -7,19 -18,19 -10,0 -17,-7 -17,-19l0 -50c0,-1 -1,-1 -1,-1l-8 0c-1,0 -1,0 -1,1l0 50c0,18 10,29 27,29z"/>
     </g>
           <g>
      <path class="fil2" d="M823 280c1,0 1,0 1,-1l0 -30c0,0 1,0 1,0l18 0c15,0 25,-10 25,-24 0,-14 -10,-23 -25,-23l-28 0c0,0 -1,0 -1,1l0 76c0,1 1,1 1,1l8 0zm20 -41l0 0 -18 0c0,0 -1,0 -1,-1l0 -26c0,-1 1,-1 1,-1l18 0c9,0 15,5 15,14 0,9 -6,14 -15,14z"/>
     </g>
           <g>
      <path class="fil2" d="M892 280c0,0 1,0 1,-1l0 -30c0,0 0,0 1,0l18 0c15,0 25,-10 25,-24 0,-14 -10,-23 -25,-23l-28 0c-1,0 -1,0 -1,1l0 76c0,1 0,1 1,1l8 0zm19 -41l0 0 -17 0c-1,0 -1,0 -1,-1l0 -26c0,-1 0,-1 1,-1l17 0c10,0 16,5 16,14 0,9 -6,14 -16,14z"/>
     </g>
           <g>
      <path class="fil2" d="M951 279c0,1 1,1 1,1l48 0c0,0 1,0 1,-1l0 -7c0,-1 -1,-1 -1,-1l-38 0c0,0 -1,-1 -1,-1l0 -67c0,-1 0,-1 -1,-1l-8 0c0,0 -1,0 -1,1l0 76z"/>
     </g>
           <g>
      <path class="fil2" d="M1013 279c0,1 1,1 1,1l8 0c1,0 2,0 2,-1l0 -76c0,-1 -1,-1 -2,-1l-8 0c0,0 -1,0 -1,1l0 76z"/>
     </g>
           <g>
      <path class="fil2" d="M1043 279c0,1 1,1 1,1l48 0c0,0 1,0 1,-1l0 -7c0,-1 -1,-1 -1,-1l-38 0c0,0 -1,-1 -1,-1l0 -24c0,0 1,-1 1,-1l32 0c1,0 1,0 1,-1l0 -7c0,-1 0,-1 -1,-1l-32 0c0,0 -1,-1 -1,-1l0 -23c0,-1 1,-1 1,-1l38 0c0,0 1,0 1,-1l0 -7c0,-1 -1,-1 -1,-1l-48 0c0,0 -1,0 -1,1l0 76z"/>
     </g>
           <g>
      <path class="fil2" d="M1163 280c1,0 1,0 1,-1l-17 -33c10,-3 16,-11 16,-22 0,-13 -10,-22 -25,-22l-29 0c0,0 -1,0 -1,1l0 76c0,1 1,1 1,1l8 0c1,0 2,0 2,-1l0 -31c0,-1 0,-1 0,-1l18 0 15 32c1,1 1,1 2,1l9 0zm-25 -43l0 0 -19 0c0,0 0,0 0,0l0 -25c0,-1 0,-1 0,-1l19 0c9,0 14,5 14,13 0,8 -5,13 -14,13z"/>
     </g>
    </g>
       <g>
     <g>
      <path class="fil2" d="M411 169c1,0 2,-1 2,-2l0 -102c0,0 0,-1 1,-1l20 0c1,0 2,0 2,-2l0 -18c0,-1 -1,-2 -2,-2l-66 0c-1,0 -2,1 -2,2l0 18c0,2 1,2 2,2l20 0c0,0 1,1 1,1l0 102c0,1 0,2 2,2l20 0z"/>
     </g>
           <g>
      <path class="fil2" d="M460 170c16,0 28,-8 30,-22 0,-2 0,-2 -1,-2l-18 -4c-1,0 -2,0 -2,1 -1,5 -4,7 -8,7 -4,0 -6,-2 -8,-5 0,-1 -1,-3 -1,-13 0,0 1,-1 2,-1l35 0c2,0 2,-1 2,-2 0,-23 0,-28 -2,-33 -4,-12 -13,-19 -29,-19 -15,0 -24,7 -28,19 -2,5 -3,10 -3,28 0,17 1,23 3,27 4,13 13,19 28,19zm8 -55l0 0 -14 0c-1,0 -2,-1 -2,-1 0,-9 1,-11 1,-13 2,-3 4,-5 8,-5 4,0 6,2 7,5 0,2 1,4 1,13 0,0 -1,1 -1,1z"/>
     </g>
           <g>
      <path class="fil2" d="M529 170c17,0 29,-9 30,-25 0,-2 -1,-2 -2,-2l-18 -4c-1,0 -2,1 -2,2 0,6 -3,9 -7,9 -4,0 -6,-2 -7,-5 -1,-2 -1,-4 -1,-21 0,-18 0,-20 1,-22 1,-3 3,-4 7,-4 4,0 7,2 7,8 0,2 1,2 2,2l18 -3c1,0 2,-1 2,-2 -1,-16 -13,-26 -30,-26 -14,0 -24,6 -28,19 -2,5 -2,10 -2,28 0,18 0,22 2,28 4,12 14,18 28,18z"/>
     </g>
           <g>
      <path class="fil2" d="M568 167c0,1 1,2 2,2l29 0c17,0 27,-7 31,-21 2,-6 3,-15 3,-42 0,-28 -1,-37 -3,-43 -4,-14 -14,-21 -31,-21l-29 0c-1,0 -2,1 -2,2l0 123zm20 -17l0 0 0 -89c0,0 1,-1 1,-1l8 0c7,0 11,3 14,9 1,5 2,11 2,37 0,25 -1,31 -2,36 -3,6 -7,9 -14,9l-8 0c0,0 -1,-1 -1,-1z"/>
     </g>
           <g>
      <path class="fil2" d="M701 124c0,-19 -1,-23 -2,-28 -4,-12 -13,-19 -27,-19 -14,0 -23,7 -27,19 -1,5 -2,9 -2,28 0,19 1,23 2,28 4,12 13,18 27,18 14,0 23,-6 27,-18 1,-5 2,-9 2,-28zm-19 0l0 0c0,18 0,20 -1,23 -1,4 -4,6 -9,6 -5,0 -8,-2 -9,-6 -1,-3 -1,-5 -1,-23 0,-18 0,-20 1,-23 1,-4 4,-6 9,-6 5,0 8,2 9,6 1,3 1,5 1,23z"/>
     </g>
           <g>
      <path class="fil2" d="M738 170c16,0 26,-9 27,-24 0,-1 0,-2 -1,-2l-14 -3c-2,0 -2,1 -3,2 0,7 -4,10 -9,10 -4,0 -7,-2 -8,-6 -1,-2 -1,-4 -1,-23 0,-19 0,-21 1,-23 1,-4 4,-6 8,-6 5,0 9,3 9,10 1,1 1,2 3,2l14 -3c1,0 1,-1 1,-2 -1,-15 -11,-25 -27,-25 -13,0 -22,7 -26,18 -2,5 -2,9 -2,29 0,20 0,24 2,29 4,11 13,17 26,17z"/>
     </g>
           <g>
      <path class="fil2" d="M811 113c20,0 35,-16 35,-36 0,-20 -15,-35 -35,-35 -20,0 -36,15 -36,35 0,20 16,36 36,36zm0 -7l0 0c-16,0 -28,-13 -28,-29 0,-16 12,-28 28,-28 16,0 28,12 28,28 0,16 -12,29 -28,29zm-7 -9l0 0c0,0 1,-1 1,-2l0 -13c0,0 0,0 1,0l5 0 7 13c1,1 1,2 2,2l7 0c1,0 1,-1 1,-2l-8 -15c5,-1 7,-5 7,-11 0,-8 -5,-12 -14,-12l-16 0c0,0 -1,1 -1,2l0 36c0,1 1,2 1,2l7 0zm9 -23l0 0 -7 0c-1,0 -1,0 -1,-1l0 -7c0,-1 0,-1 1,-1l7 0c4,0 6,1 6,4 0,3 -2,5 -6,5z"/>
     </g>
    </g>
   </g>
  </g>
 </g>
</svg>
